_________________________  Visit us at _________________________
  
http://p2pdl.com  ____________________________  http://p2pdl.com


Cop Land 1997 BRRip 720p x264 AAC - PRiSTiNE [P2PDL]

Genre: Crime | Drama | Thriller
Plot: The sheriff of a suburban New Jersey community 
populated by New York City policemen slowly discovers 
the town is a front for mob connections and corruption.
Director: James Mangold
Stars: Sylvester Stallone, Harvey Keitel, Ray Liotta
Rated: Rated R for violence, strong language and brief nudity

Info: 
http://www.imdb.com/title/tt0118887/

General
Complete name                  : Cop Land 1997 BRRip 720p x264 AAC - PRiSTiNE.mp4
Format                         : MPEG-4
File size                      : 700 MiB
Duration                       : 1h 56mn
Overall bit rate mode          : Variable
Overall bit rate               : 841 Kbps

Video
Format                         : AVC
Format/Info                    : Advanced Video Codec
Format profile                 : High 10@L4.1
Bit rate                       : 759 Kbps
Width                          : 1 280 pixels
Height                         : 688 pixels
Display aspect ratio           : 1.85:1
Frame rate mode                : Constant
Frame rate                     : 23.976 fps
Color space                    : YUV
Chroma subsampling             : 4:2:0
Bit depth                      : 10 bits
Stream size                    : 631 MiB (90%)
Writing library                : x264 core 130 r2273 b3065e6

Audio
Format                         : AAC
Format/Info                    : Advanced Audio Codec
Bit rate                       : 80.0 Kbps
Channel(s)                     : 2 channels
Channel positions              : Front: L R
Sampling rate                  : 48.0 KHz / 24.0 KHz
Stream size                    : 66.5 MiB (10%)
Language                       : English

Subtitle                       : Yes (English)
Source                         : REMASTERED.DC.720p.BluRay.DTS.x264-PublicHD (Thanks)

Screenshots:
 
http://www.ultraimg.com/images/udIsJ.jpg 
http://www.ultraimg.com/images/VM67.jpg 
http://www.ultraimg.com/images/ThMFN.jpg 
http://www.ultraimg.com/images/39pew.jpg 
http://www.ultraimg.com/images/yB9IX.jpg 
http://www.ultraimg.com/images/CyU10.jpg 
http://www.ultraimg.com/images/Z2IOe.jpg 
http://www.ultraimg.com/images/ZNkzT.jpg

----------------------------------------------------------------------------------------------------


Encoded using revolutionary 10bit encoding, which enables us to provide you more crispier 
and sharper images at small sizes, just make sure you follow our instructions without a fault.
Recommend to you to use latest version of VLC player. Install K-Lite Codec Pack or shark007 codecs
in case of any kind of problem in playback (For non-VLC Media Player users). Alternatively, install
Core AVC codecs, the fastest decoder that there is coupled with Community Center Codec Pack and play
on Windows Media Player Classic. Check sample to be sure.
Enjoy!

Encoder Notes:Looking For Early Access To Anything You Can Provide DVDScr, R5, DVDR, BluRay, Direct
Audio, Music Releases and Seedboxes. We require dedicated servers, so as to do more 
and fast releases of movies.
If You Got anything to offer please contact us at "prg@hush.com".

Face book Fan Page:   
http://www.fb.me/p2pdl